<svg width="64" height="64" viewBox="0 0 64 64" fill="none" xmlns="http://www.w3.org/2000/svg">
<path d="M29.7709 0.0574132C50.5853 -1.13623 67.2585 16.443 63.4567 37.8032C58.3884 66.273 21.1259 73.4759 5.36517 49.7433C-8.32253 29.1334 5.75813 1.43364 29.7709 0.0574132ZM53.0842 11.3964C38.04 -4.06507 10.6098 1.78516 4.06587 22.7503C-3.35403 46.5239 18.4884 67.1276 41.326 59.9222C61.7255 53.4857 68.1685 26.8989 53.0842 11.3964Z" fill="#1E1E1E"/>
<path d="M50.6 22.7516C50.8457 28.218 50.1182 33.8322 46.7033 38.2131C43.3042 42.574 38.2724 44.9973 32.8379 45.3588C32.8525 44.9278 32.7662 44.3366 32.9827 43.954C33.1068 43.7354 33.3599 43.6882 33.501 43.4895C37.2943 38.0963 41.8284 34.4222 45.9745 29.5197C46.2556 29.1868 47.4223 27.9435 46.404 27.9584C45.7288 27.9683 44.9599 29.1955 44.5219 29.6501C41.91 32.3542 39.1532 34.9514 36.6081 37.7175C35.3331 39.1024 34.2115 40.65 32.8988 42.0052C32.6226 42.0573 32.7321 41.8822 32.7187 41.6984C32.4499 38.0466 34.1896 32.3455 36.4925 29.5272C39.9257 25.3239 45.3444 23.1826 50.6024 22.7541L50.6 22.7516Z" fill="#1E1E1E"/>
<path d="M31.4984 42.1269C31.3707 42.2734 30.3536 41.1618 30.2198 41.0115C26.766 37.1498 23.48 32.8162 19.5784 29.3942C19.0285 28.9111 18.4154 28.2192 17.6307 28.5906C17.5382 28.7198 18.0127 29.3731 18.1197 29.5172C19.5298 31.4101 21.8145 33.2472 23.4727 34.9824C25.7173 37.3312 29.8037 41.3729 31.2405 44.1925C31.4048 44.5154 31.4169 44.9389 31.5009 45.2942C31.4814 45.7252 27.154 44.6309 26.783 44.5216C19.0468 42.2287 13.7887 35.2805 13.4943 27.0368C13.4444 25.6407 13.6744 24.2706 13.6148 22.877C19.0115 23.3875 24.2026 25.4556 27.7903 29.7072C30.6055 33.0435 31.3476 37.8603 31.4984 42.1293V42.1269Z" fill="#1E1E1E"/>
<path d="M32.1091 35.0482C30.8743 31.0351 28.5348 27.5001 24.9557 25.3364L24.9167 25.1749C25.0956 23.4546 25.0676 21.8275 25.452 20.1184C26.1601 16.9709 28.9521 12.4162 31.6262 10.6487C31.7916 10.5394 31.9522 10.4301 32.1639 10.4525C32.5021 10.4885 34.7564 12.959 35.1457 13.3788C36.484 15.1364 37.6251 17.0864 38.3137 19.2116C38.9463 21.1605 39.0619 23.1354 39.2651 25.165C38.6799 25.6022 38.0193 25.9413 37.4584 26.417C35.6384 27.9584 34.0277 30.1656 33.097 32.3976C32.7734 33.1739 32.6603 34.0645 32.3561 34.7452C32.3014 34.8681 32.2758 35.0358 32.1079 35.0495L32.1091 35.0482ZM31.4996 17.038C31.4485 17.265 31.4996 31.8188 31.4996 31.8188C31.9169 31.8375 32.3744 31.8971 32.4693 31.3804C32.5057 28.9744 32.6116 26.5822 32.6006 24.1738C32.5994 23.8185 32.6043 23.3661 32.6006 23.0407C32.577 20.9292 32.6006 17.265 32.6006 17.038C32.6006 16.811 32.0568 16.8303 32.0568 16.8303C32.0568 16.8303 31.5508 16.811 31.4996 17.038Z" fill="#1E1E1E"/>
<path d="M32.5946 46.4754C32.8708 49.4825 32.9523 52.5318 32.7175 55.5439L31.5532 55.4271L31.6226 46.6009L32.5946 46.4754Z" fill="#1E1E1E"/>
</svg>
